#VRML V2.0 utf8
Shape { appearance Appearance { material Material { diffuseColor 0.35 0.35 0.38 specularColor 0.2 0.2 0.2 } }
 geometry IndexedFaceSet { solid FALSE coord Coordinate { point [ -2.5197 -1.1417 0.0000, 2.5197 -1.1417 0.0000, -2.5197 1.1417 0.0000, 2.5197 1.1417 0.0000, -2.5197 -1.1417 2.5591, 2.5197 -1.1417 2.5591, -2.5197 1.1417 2.5591, 2.5197 1.1417 2.5591 ] } coordIndex [ 0,2,3,1,-1, 4,5,7,6,-1, 0,1,5,4,-1, 2,6,7,3,-1, 0,4,6,2,-1, 1,3,7,5,-1 ] } }
Shape { appearance Appearance { material Material { diffuseColor 0.85 0.85 0.9 specularColor 0.2 0.2 0.2 } }
 geometry IndexedFaceSet { solid FALSE coord Coordinate { point [ -2.1260 -0.5906 2.9528, 1.4173 -0.5906 2.9528, -2.1260 0.5906 2.9528, 1.4173 0.5906 2.9528, -2.1260 -0.5906 3.0709, 1.4173 -0.5906 3.0709, -2.1260 0.5906 3.0709, 1.4173 0.5906 3.0709 ] } coordIndex [ 0,2,3,1,-1, 4,5,7,6,-1, 0,1,5,4,-1, 2,6,7,3,-1, 0,4,6,2,-1, 1,3,7,5,-1 ] } }
Shape { appearance Appearance { material Material { diffuseColor 0.85 0.85 0.9 specularColor 0.2 0.2 0.2 } }
 geometry IndexedFaceSet { solid FALSE coord Coordinate { point [ 1.0236 -0.5906 3.0709, 1.8110 -0.5906 3.0709, 1.0236 0.5906 3.0709, 1.8110 0.5906 3.0709, 1.0236 -0.5906 3.8583, 1.8110 -0.5906 3.8583, 1.0236 0.5906 3.8583, 1.8110 0.5906 3.8583 ] } coordIndex [ 0,2,3,1,-1, 4,5,7,6,-1, 0,1,5,4,-1, 2,6,7,3,-1, 0,4,6,2,-1, 1,3,7,5,-1 ] } }
