#VRML V2.0 utf8
Shape { appearance Appearance { material Material { diffuseColor 0.75 0.75 0.78 specularColor 0.2 0.2 0.2 } }
 geometry IndexedFaceSet { solid FALSE coord Coordinate { point [ -0.2953 -2.4606 0.0000, 11.5157 -2.4606 0.0000, -0.2953 1.0827 0.0000, 11.5157 1.0827 0.0000, -0.2953 -2.4606 2.5591, 11.5157 -2.4606 2.5591, -0.2953 1.0827 2.5591, 11.5157 1.0827 2.5591 ] } coordIndex [ 0,2,3,1,-1, 4,5,7,6,-1, 0,1,5,4,-1, 2,6,7,3,-1, 0,4,6,2,-1, 1,3,7,5,-1 ] } }
Shape { appearance Appearance { material Material { diffuseColor 0.1 0.1 0.1 specularColor 0.2 0.2 0.2 } }
 geometry IndexedFaceSet { solid FALSE coord Coordinate { point [ 4.8228 -1.0827 2.5591, 6.3976 -1.0827 2.5591, 4.8228 -0.2953 2.5591, 6.3976 -0.2953 2.5591, 4.8228 -1.0827 6.4961, 6.3976 -1.0827 6.4961, 4.8228 -0.2953 6.4961, 6.3976 -0.2953 6.4961 ] } coordIndex [ 0,2,3,1,-1, 4,5,7,6,-1, 0,1,5,4,-1, 2,6,7,3,-1, 0,4,6,2,-1, 1,3,7,5,-1 ] } }
