#VRML V2.0 utf8
Shape { appearance Appearance { material Material { diffuseColor 0.75 0.75 0.78 specularColor 0.2 0.2 0.2 } }
 geometry IndexedFaceSet { solid FALSE coord Coordinate { point [ -0.3937 -2.4606 0.0000, 13.3858 -2.4606 0.0000, -0.3937 1.0827 0.0000, 13.3858 1.0827 0.0000, -0.3937 -2.4606 2.5591, 13.3858 -2.4606 2.5591, -0.3937 1.0827 2.5591, 13.3858 1.0827 2.5591 ] } coordIndex [ 0,2,3,1,-1, 4,5,7,6,-1, 0,1,5,4,-1, 2,6,7,3,-1, 0,4,6,2,-1, 1,3,7,5,-1 ] } }
Shape { appearance Appearance { material Material { diffuseColor 0.75 0.75 0.78 specularColor 0.2 0.2 0.2 } }
 geometry IndexedFaceSet { solid FALSE coord Coordinate { point [ 5.7087 -0.9252 2.5591, 7.2835 -0.9252 2.5591, 5.7087 -0.4528 2.5591, 7.2835 -0.4528 2.5591, 5.7087 -0.9252 6.4961, 7.2835 -0.9252 6.4961, 5.7087 -0.4528 6.4961, 7.2835 -0.4528 6.4961 ] } coordIndex [ 0,2,3,1,-1, 4,5,7,6,-1, 0,1,5,4,-1, 2,6,7,3,-1, 0,4,6,2,-1, 1,3,7,5,-1 ] } }
