#VRML V2.0 utf8
Shape { appearance Appearance { material Material { diffuseColor 0.2 0.2 0.22 specularColor 0.2 0.2 0.2 } }
 geometry IndexedFaceSet { solid FALSE coord Coordinate { point [ -0.9449 -2.9921 0.0000, 2.9134 -2.9921 0.0000, -0.9449 0.6299 0.0000, 2.9134 0.6299 0.0000, -0.9449 -2.9921 4.2913, 2.9134 -2.9921 4.2913, -0.9449 0.6299 4.2913, 2.9134 0.6299 4.2913 ] } coordIndex [ 0,2,3,1,-1, 4,5,7,6,-1, 0,1,5,4,-1, 2,6,7,3,-1, 0,4,6,2,-1, 1,3,7,5,-1 ] } }
Shape { appearance Appearance { material Material { diffuseColor 0.8 0.1 0.1 specularColor 0.2 0.2 0.2 } }
 geometry IndexedFaceSet { solid FALSE coord Coordinate { point [ 0.3346 -1.8307 4.2913, 1.6339 -1.8307 4.2913, 0.3346 -0.5315 4.2913, 1.6339 -0.5315 4.2913, 0.3346 -1.8307 5.9055, 1.6339 -1.8307 5.9055, 0.3346 -0.5315 5.9055, 1.6339 -0.5315 5.9055 ] } coordIndex [ 0,2,3,1,-1, 4,5,7,6,-1, 0,1,5,4,-1, 2,6,7,3,-1, 0,4,6,2,-1, 1,3,7,5,-1 ] } }
