#VRML V2.0 utf8
Shape { appearance Appearance { material Material { diffuseColor 0.15 0.15 0.17 specularColor 0.2 0.2 0.2 } }
 geometry IndexedFaceSet { solid FALSE coord Coordinate { point [ -1.3780 -1.3780 0.0000, 1.3780 -1.3780 0.0000, -1.3780 1.3780 0.0000, 1.3780 1.3780 0.0000, -1.3780 -1.3780 2.7559, 1.3780 -1.3780 2.7559, -1.3780 1.3780 2.7559, 1.3780 1.3780 2.7559 ] } coordIndex [ 0,2,3,1,-1, 4,5,7,6,-1, 0,1,5,4,-1, 2,6,7,3,-1, 0,4,6,2,-1, 1,3,7,5,-1 ] } }
Shape { appearance Appearance { material Material { diffuseColor 0.9 0.9 0.9 specularColor 0.2 0.2 0.2 } }
 geometry IndexedFaceSet { solid FALSE coord Coordinate { point [ -0.5906 -0.5118 2.7559, 0.5906 -0.5118 2.7559, -0.5906 0.5118 2.7559, 0.5906 0.5118 2.7559, -0.5906 -0.5118 4.9213, 0.5906 -0.5118 4.9213, -0.5906 0.5118 4.9213, 0.5906 0.5118 4.9213 ] } coordIndex [ 0,2,3,1,-1, 4,5,7,6,-1, 0,1,5,4,-1, 2,6,7,3,-1, 0,4,6,2,-1, 1,3,7,5,-1 ] } }
